<?xml version="1.0" encoding="utf-8"?>
<!-- Generator: Adobe Illustrator 24.3.0, SVG Export Plug-In . SVG Version: 6.00 Build 0)  -->
<svg version="1.1" id="Layer_1" xmlns="http://www.w3.org/2000/svg" xmlns:xlink="http://www.w3.org/1999/xlink" x="0px" y="0px"
	 viewBox="0 0 371 371" style="enable-background:new 0 0 371 371;" xml:space="preserve">
<style type="text/css">
	.st0{fill:#565ADE;}
	.st1{fill:#F0F0F0;}
</style>
<g>
	<path class="st0" d="M185.8,8c98,0.2,177.3,79.7,177.2,177.8c0,0.3,0,0.6,0,0.9c-0.3,96.4-80.8,180-184.5,176.3
		C85.8,359.6,7.2,282.3,8,184C8.8,86.6,88.1,7.6,185.8,8z"/>
	<path class="st0" d="M90.8,187.5c0,6.3,0,12.7,0,19c0.1,8.1,1.3,9.6,9.3,9.6c4,0,5.3,1,5.2,5.2c-0.3,8.8-0.2,17.6,0,26.4
		c0.1,3.2-0.6,4.6-4.2,4.6c-18.4-0.2-36.9-0.1-55.3,0c-2.9,0-4-0.8-4-3.8c0.2-9.5,0.2-18.9,0-28.4c-0.1-3.1,1.1-3.8,4-3.8
		c9.1-0.2,10.5-1.8,10.5-10.7c0-12.6,0-25.1,0-37.7c0-9-1.1-10.5-10.3-11.1c-3.5-0.2-4.3-1.4-4.2-4.6c0.2-9.1,0.1-18.3,0-27.4
		c0-2.7,0.7-3.7,3.6-3.7c21.5,0.1,43.1,0.1,64.6,0c2.9,0,4,1.5,5.2,3.5c11.9,18.6,23.8,37.3,35.8,56c0.5,0.8,1,1.6,2.2,3.2
		c0-8.2,0.3-15.3-0.1-22.5c-0.2-4.1-4.1-4.5-7.1-4.4c-4.6,0.1-5.2-2-5.1-5.9c0.3-8.5,0.2-17,0-25.5c-0.1-3.2,0.6-4.6,4.2-4.6
		c17.3,0.2,34.6,0.1,51.9,0c2.9,0,4,0.8,4,3.8c-0.2,9.3-0.1,18.6,0,27.9c0,2.4-0.3,3.7-3.3,4c-8.2,0.7-9.2,2-9.2,10.5
		c0,26.8-0.1,53.5,0.1,80.3c0,4-1.2,4.9-5,4.9c-15.2-0.2-30.4-0.2-45.5,0c-3.4,0-5.3-1.1-7.1-3.9c-11.6-18.5-23.5-36.9-35.2-55.3
		l-3.9-6L90.8,187.5z"/>
	<path class="st0" d="M236.3,245.3c1.6,6.6-1.5,7.1-5.9,6.9c-7.3-0.3-14.7-0.2-22,0c-2.9,0.1-4-0.6-4-3.8c0.1-14.5,0.1-29.1,0-43.6
		c0-2.9,1-3.6,3.7-3.5c8.8,0.1,17.6,0,27.3,0c-4.1-2.1-7.5-3.7-10.8-5.6c-14.9-8.2-21.9-21.1-21.1-37.9
		c0.9-16.6,10.4-27.6,25.2-33.6c19.7-8.1,39.5-6.9,59,1.2c2.6,1.1,5,2.8,4.6-2.2c-0.2-2.1,1.1-2.4,2.8-2.4c8.8,0,17.6,0.1,26.4,0
		c2.4,0,3.1,0.9,3.1,3.2c-0.1,14.5-0.1,29.1,0,43.6c0,3.2-1.6,3.3-4,3.3c-8.6-0.1-17.3,0-27.5,0c6.5,3,11.9,4.9,16.7,8.1
		c13.7,9,19.6,21.9,18.6,38c-1,15.2-9.6,25.2-23,31.4c-7.9,3.7-16.4,5.1-25.1,5.8C265.1,255.5,249.8,252.4,236.3,245.3z"/>
	<path class="st1" d="M87.6,175.6c0,11.9-0.1,23.8,0.1,35.7c0.1,5.2,2.7,7.5,9.6,8.2c3.8,0.4,4.4,1.9,4.3,5.2
		c-0.2,6.5-0.2,13.1,0,19.6c0.1,3-0.6,4.3-4,4.3c-16.2-0.2-32.3-0.1-48.5,0c-2.8,0-3.7-0.8-3.6-3.6c0.2-7.2,0.1-14.4,0-21.5
		c0-2.2,0.3-3.3,3-3.8c9.1-1.5,11.2-4.1,11.3-13.4c0.1-13.2,0.1-26.4,0-39.7c-0.1-9.4-2.3-11.8-11.4-13.2c-2.4-0.4-2.9-1.3-2.9-3.4
		c0.1-7.3,0.1-14.7,0-22c0-2.6,0.9-3.4,3.4-3.4c19.8,0.1,39.5,0.1,59.2,0c2.9,0,3.9,1.7,5.2,3.6c13.3,20.9,26.7,41.8,40,62.7
		c0.9,1.4,1.8,2.7,2.7,4c1.7-0.7,1-2.1,1-3c0.1-9,0.1-18,0-26.9c-0.1-7.8-2-10.2-9.6-11.5c-2.4-0.4-2.9-1.3-2.9-3.5
		c0.1-7.2,0.1-14.4,0-21.5c0-2.6,0.7-3.8,3.6-3.8c15.2,0.1,30.4,0.1,45.5,0c2.9,0,3.6,1.1,3.6,3.8c-0.1,7.2-0.1,14.4,0,21.5
		c0,2.1-0.4,3.1-2.8,3.5c-7.5,1.4-9.6,4.3-9.6,12.2c0,25.8-0.1,51.6,0.1,77.4c0,4.5-1.1,5.7-5.6,5.7c-13.2-0.3-26.4-0.2-39.7,0
		c-3.2,0-5-1.1-6.6-3.7c-13.7-21.6-27.5-43.2-41.3-64.8c-1-1.6-2.1-3.2-3.1-4.8L87.6,175.6z"/>
	<path class="st1" d="M295.5,133.5c1-8.9,1-8.9,9.6-8.9c4.1,0,8.2,0.1,12.2,0c2.4-0.1,3.6,0.5,3.5,3.2c-0.1,12.1-0.1,24.2,0,36.2
		c0,2.2-0.5,3.3-3,3.2c-6.5-0.1-13.1-0.2-19.6,0c-2.7,0.1-3.1-1.5-3.9-3.4c-5.3-12.4-18.7-19.7-30.9-16.6c-4.3,1.1-8.1,2.9-8.7,8
		s2.4,7.8,6.5,9.9c5.9,3,12.3,4.3,18.6,5.9c10.5,2.7,20.9,5.7,29.8,12c12.7,9.1,17,22,14.8,37c-2.1,14.2-11.7,22.3-24.6,26.5
		c-21.2,6.9-42.1,6-62.1-4.4c-3.6-1.9-5.4-1.9-4.8,2.8c0.3,2.7-0.8,3.8-3.6,3.7c-5.9-0.2-11.8-0.2-17.6,0c-2.7,0.1-3.7-0.6-3.7-3.5
		c0.1-12.2,0.1-24.5,0-36.7c0-2.5,0.7-3.5,3.3-3.5c6.4,0.1,12.7,0.2,19.1,0c2.8-0.1,3.4,1.4,4.3,3.6c5.7,13.4,20.2,21,32.9,17.6
		c4.2-1.1,7.7-3.3,8.3-7.9c0.6-4.8-2-8-6.3-10c-8.8-4.2-18.3-5.9-27.4-8.7c-9.6-2.9-18.9-6.5-25.8-14.1
		c-17.6-19.5-10.6-48.9,14.2-58.1c20.9-7.8,41.6-6.2,61.4,4.4C293.1,132.1,294.1,132.7,295.5,133.5z"/>
</g>
</svg>
