<svg xmlns="http://www.w3.org/2000/svg" width="2076" height="511" viewBox="0 0 2076 511"><defs><style>.a{fill:#565ade;opacity:0.31;}</style></defs><g transform="translate(63 -225)"><path class="a" d="M1795,370.5A140.5,140.5,0,1,1,1935.5,511,140.5,140.5,0,0,1,1795,370.5Zm-718,0A140.5,140.5,0,1,1,1217.5,511,140.5,140.5,0,0,1,1077,370.5Zm-718,0A140.5,140.5,0,1,1,499.5,511,140.5,140.5,0,0,1,359,370.5Zm1077-230A140.5,140.5,0,1,1,1576.5,281,140.5,140.5,0,0,1,1436,140.5Zm-718,0A140.5,140.5,0,1,1,858.5,281,140.5,140.5,0,0,1,718,140.5Zm-718,0A140.5,140.5,0,1,1,140.5,281,140.5,140.5,0,0,1,0,140.5Z" transform="translate(-63 225)"/></g></svg>